# xmcd
#
# Track frame offsets: 
#        150
#        12559
#        25346
#        38885
#        50888
#        63305
#        80310
#        92335
#        102498
#        115285
#        129252
#        141475
#        158452
#        170855
#        187376
#
# Disc length: 2648 seconds
#
# Revision: 2
# Processed by: cddbd v1.5.2PL0 Copyright (c) Steve Scherf et al.
# Submitted via: ExactAudioCopyFreeDBPlugin 1.0
#
DISCID=d30a560f
DTITLE=John Lee Hooker - I'm In The Mood (compilation)
DYEAR=2005
DGENRE=Blues
TTITLE0=I'm in the mood
TTITLE1=Hobo blues
TTITLE2=Baby Lee
TTITLE3=Little wheel
TTITLE4=Whiskey and wimmen
TTITLE5=Process
TTITLE6=Hard headed woman
TTITLE7=Onions
TTITLE8=I'm so excited
TTITLE9=Road is so rough
TTITLE10=I'm a stranger
TTITLE11=Blues before sunrise
TTITLE12=Crawlin' King Snake
TTITLE13=When my first wife left me
TTITLE14=Big fine woman
EXTD=YEAR: 2002
EXTT0=
EXTT1=
EXTT2=
EXTT3=
EXTT4=
EXTT5=
EXTT6=
EXTT7=
EXTT8=
EXTT9=
EXTT10=
EXTT11=
EXTT12=
EXTT13=
EXTT14=
PLAYORDER=
